HIERARCHY
ROOT Pelvis
{
	OFFSET 0.000000 0.000000 0.000000
	CHANNELS 6 Xposition Yposition Zposition Xrotation Yrotation Zrotation
	JOINT LeftUpLeg_virtual
	{
		OFFSET 0.000000 0.000000 0.000000
		CHANNELS 3 Xrotation Yrotation Zrotation
		JOINT LeftUpLeg
		{
			OFFSET 18.735201 -5.666702 -4.541200
			CHANNELS 3 Xrotation Yrotation Zrotation
			JOINT LeftLeg
			{
				OFFSET -0.021200 -31.938179 0.493100
				CHANNELS 3 Xrotation Yrotation Zrotation
				JOINT LeftFoot
				{
					OFFSET 0.021200 -31.938179 -4.336299
					CHANNELS 3 Xrotation Yrotation Zrotation
					JOINT LeftToeBase
					{
						OFFSET 0.943001 -26.722000 15.023500
						CHANNELS 3 Xrotation Yrotation Zrotation
						End Site
						{
							OFFSET 0 0 0
						}
					}
				}
			}
		}
	}
	JOINT RightUpLeg_virtual
	{
		OFFSET 0.000000 0.000000 0.000000
		CHANNELS 3 Xrotation Yrotation Zrotation
		JOINT RightUpLeg
		{
			OFFSET -18.735201 -5.666702 -4.541200
			CHANNELS 3 Xrotation Yrotation Zrotation
			JOINT RightLeg
			{
				OFFSET 0.018946 -31.938133 0.493100
				CHANNELS 3 Xrotation Yrotation Zrotation
				JOINT RightFoot
				{
					OFFSET -0.018946 -31.938126 -4.336299
					CHANNELS 3 Xrotation Yrotation Zrotation
					JOINT RightToeBase
					{
						OFFSET -0.943001 -26.722004 15.023500
						CHANNELS 3 Xrotation Yrotation Zrotation
						End Site
						{
							OFFSET 0 0 0
						}
					}
				}
			}
		}
	}
	JOINT Hips_virtual
	{
		OFFSET 0.000000 0.000000 0.000000
		CHANNELS 3 Xrotation Yrotation Zrotation
		JOINT Hips
		{
			OFFSET -0.000000 -0.000000 -0.000000
			CHANNELS 3 Xrotation Yrotation Zrotation
			JOINT Spine
			{
				OFFSET 0.000000 10.199997 -0.299500
				CHANNELS 3 Xrotation Yrotation Zrotation
				JOINT Spine1
				{
					OFFSET 0.000000 11.900002 -1.516600
					CHANNELS 3 Xrotation Yrotation Zrotation
					JOINT Spine2
					{
						OFFSET 0.000000 13.600006 -2.842500
						CHANNELS 3 Xrotation Yrotation Zrotation
						JOINT Neck_virtual
						{
							OFFSET 0.000000 0.000000 0.000000
							CHANNELS 3 Xrotation Yrotation Zrotation
							JOINT Neck
							{
								OFFSET 0.000000 9.624100 -2.890100
								CHANNELS 3 Xrotation Yrotation Zrotation
								JOINT Head
								{
									OFFSET 0.000000 14.068802 -1.351900
									CHANNELS 3 Xrotation Yrotation Zrotation
									End Site
									{
										OFFSET 0 0 0
									}
								}
							}
						}
						JOINT LeftShoulder_virtual
						{
							OFFSET 0.000000 0.000000 0.000000
							CHANNELS 3 Xrotation Yrotation Zrotation
							JOINT LeftShoulder
							{
								OFFSET 15.263000 10.923401 -0.547700
								CHANNELS 3 Xrotation Yrotation Zrotation
								JOINT LeftArm
								{
									OFFSET 25.438599 -2.830597 -13.032500
									CHANNELS 3 Xrotation Yrotation Zrotation
									JOINT LeftForeArm
									{
										OFFSET 29.960503 0.000000 0.000000
										CHANNELS 3 Xrotation Yrotation Zrotation
										JOINT LeftHand
										{
											OFFSET 27.849251 0.000000 0.000000
											CHANNELS 3 Xrotation Yrotation Zrotation
											End Site
											{
												OFFSET 0 0 0
											}
										}
									}
								}
							}
						}
						JOINT RightShoulder_virtual
						{
							OFFSET 0.000000 0.000000 0.000000
							CHANNELS 3 Xrotation Yrotation Zrotation
							JOINT RightShoulder
							{
								OFFSET -15.263000 10.923401 -0.547700
								CHANNELS 3 Xrotation Yrotation Zrotation
								JOINT RightArm
								{
									OFFSET -25.438599 -2.830597 -13.032500
									CHANNELS 3 Xrotation Yrotation Zrotation
									JOINT RightForeArm
									{
										OFFSET -29.960503 0.000000 0.000000
										CHANNELS 3 Xrotation Yrotation Zrotation
										JOINT RightHand
										{
											OFFSET -27.849251 0.000000 0.000000
											CHANNELS 3 Xrotation Yrotation Zrotation
											End Site
											{
												OFFSET 0 0 0
											}
										}
									}
								}
							}
						}
					}
				}
			}
		}
	}
}
MOTION
Frames: 10
Frame Time: 0.03333333
-5.751500 91.071030 13.378387 0.000000 0.000000 0.000000 169.685641 -63.511757 166.459524 -5.148657 11.749963 19.978855 25.675969 19.494069 1.753083 -13.391783 6.518499 -25.982805 0.000000 0.000000 0.000000 169.685641 -63.511757 166.459524 -26.087808 -14.163881 -17.759810 27.054489 -21.514164 3.395994 -4.866387 -1.670630 11.978434 0.000000 0.000000 0.000000 169.685641 -63.511757 166.459524 0.000000 -0.000002 0.000000 10.808593 -0.699644 0.031550 -2.437259 -1.524346 2.027952 0.000000 0.000000 0.000000 -2.415246 -1.304876 2.142121 -0.699769 4.634319 1.063619 0.000000 0.000000 0.000000 -2.415246 -1.304876 2.142121 0.583883 2.751434 -9.555018 -4.658423 -9.329898 -60.259248 6.619129 -15.153019 -6.926418 0.000000 0.000000 0.000000 -2.415246 -1.304876 2.142121 0.722513 1.588461 17.883394 17.917258 24.858142 44.399163 15.165566 24.206974 -5.712832 0.000000 0.000000 0.000000 
-5.415225 90.576202 11.016224 0.000000 0.000000 0.000000 170.227288 -60.409827 167.225953 -1.718982 11.647206 20.832395 22.793156 20.920813 1.861922 -10.890761 8.614839 -29.868964 0.000000 0.000000 0.000000 170.227288 -60.409827 167.225953 -29.996651 -17.728943 -17.909270 29.025558 -16.288135 3.005291 -3.355420 -0.613082 9.946649 0.000000 0.000000 0.000000 170.227288 -60.409827 167.225953 0.000000 0.000000 0.000000 10.606785 -1.000154 -0.086561 -2.398482 -2.056337 2.718429 0.000000 0.000000 0.000000 -2.356986 -1.768261 2.869752 -0.657295 3.995744 0.662270 0.000000 0.000000 0.000000 -2.356986 -1.768261 2.869752 0.705977 3.275487 -11.637328 -4.210786 -8.950366 -59.610585 5.910701 -15.225791 -6.974028 0.000000 0.000000 0.000000 -2.356986 -1.768261 2.869752 0.703464 1.524169 16.490404 17.133157 25.354796 44.976236 15.517505 24.279250 -5.951853 0.000000 0.000000 0.000000 
-5.094304 90.195023 8.265984 0.000000 0.000000 0.000000 171.015806 -56.974655 168.130311 -0.878345 11.302641 23.338531 23.880855 22.975590 2.023026 -5.041063 8.088897 -35.068151 0.000000 0.000000 0.000000 171.015806 -56.974655 168.130311 -33.781651 -23.282319 -17.382061 31.297938 -9.788145 1.049297 -4.168334 1.154407 7.619581 0.000000 0.000000 0.000000 171.015806 -56.974655 168.130311 0.000000 0.000000 0.000000 10.604385 -1.210558 0.007771 -2.282223 -2.483309 3.172532 0.000000 0.000000 0.000000 -2.225454 -2.139751 3.353372 -0.802624 3.263771 0.349953 0.000000 0.000000 0.000000 -2.225454 -2.139751 3.353372 0.793941 3.860548 -12.834926 -2.590068 -10.725964 -59.685301 6.796633 -15.986963 -5.978530 0.000000 0.000000 0.000000 -2.225454 -2.139751 3.353372 0.708321 1.125617 15.555423 16.276320 26.099153 45.427626 15.667838 24.549525 -6.236645 0.000000 0.000000 0.000000 
-4.739766 89.827332 5.213421 0.000000 0.000000 0.000000 172.760496 -53.155811 169.426353 -0.399513 12.549049 26.455213 25.909602 24.221820 2.111567 0.262235 6.363075 -38.790024 0.000000 0.000000 0.000000 172.760496 -53.155811 169.426353 -34.158684 -22.515539 -14.415659 33.579679 -7.801276 0.559560 -4.353312 1.301034 6.599263 0.000000 0.000000 0.000000 172.760496 -53.155811 169.426353 0.000000 -0.000001 0.000000 11.168402 -1.238702 1.004663 -2.184789 -2.521676 2.559260 0.000000 0.000000 0.000000 -2.144793 -2.198690 2.749640 -0.930871 2.485865 0.550778 0.000000 0.000000 0.000000 -2.144793 -2.198690 2.749640 0.681288 3.502415 -11.167991 -2.297083 -10.737608 -61.310373 5.153916 -14.651654 -6.270497 0.000000 0.000000 0.000000 -2.144793 -2.198690 2.749640 0.766243 0.445091 16.434289 15.582544 26.635747 45.617126 14.845664 25.297042 -6.337003 0.000000 0.000000 0.000000 
-4.522289 89.679626 1.972464 0.000000 0.000000 0.000000 174.140645 -49.652634 170.534387 -1.683266 12.072656 29.101278 29.487419 25.191679 2.151685 4.870951 2.712382 -38.595623 0.000000 0.000000 0.000000 174.140645 -49.652634 170.534387 -33.245106 -21.965048 -11.360973 35.286212 -6.143318 0.570262 -6.095964 1.353565 4.898458 0.000000 0.000000 0.000000 174.140645 -49.652634 170.534387 0.000000 -0.000005 0.000000 11.611220 -1.410809 1.237672 -2.160636 -2.728502 2.375056 0.000000 0.000000 0.000000 -2.119564 -2.394221 2.586980 -0.867178 1.837065 0.620253 0.000000 0.000000 0.000000 -2.119564 -2.394221 2.586980 0.616038 3.362023 -10.121744 -0.446452 -12.343794 -62.399352 2.775078 -14.128391 -6.587223 0.000000 0.000000 0.000000 -2.119564 -2.394221 2.586980 0.775141 0.477986 16.844432 15.144362 26.393570 45.879289 14.868229 26.329939 -6.676946 0.000000 0.000000 0.000000 
-4.388663 89.927917 -1.807398 0.000000 0.000000 0.000000 175.350531 -45.707035 171.981472 -6.061107 8.669784 29.255158 36.816557 24.834383 2.082120 6.282428 -0.652813 -30.691025 0.000000 0.000000 0.000000 175.350531 -45.707035 171.981472 -31.448527 -20.582160 -8.068537 36.527992 -4.525928 0.622003 -8.567552 1.104648 2.992415 0.000000 0.000000 0.000000 175.350531 -45.707035 171.981472 0.000000 -0.000001 0.000001 12.020647 -1.563390 0.515691 -2.351958 -2.866231 2.499392 0.000000 0.000000 0.000000 -2.294729 -2.503725 2.730778 -0.626769 1.200664 0.592107 0.000000 0.000000 0.000000 -2.294729 -2.503725 2.730778 0.636046 3.559047 -10.423446 0.865301 -10.035155 -62.360037 5.980790 -15.224087 -6.819161 0.000000 0.000000 0.000000 -2.294729 -2.503725 2.730778 0.783943 -0.163218 16.607694 16.005029 28.907222 45.018299 14.671842 25.924939 -6.468442 0.000000 0.000000 0.000000 
-4.266931 90.115059 -5.371059 0.000000 0.000000 0.000000 176.600497 -41.878007 173.077472 -9.982291 5.028276 27.682091 43.556468 21.009213 1.799241 7.494525 -0.484290 -21.251674 0.000000 0.000000 0.000000 176.600497 -41.878007 173.077472 -28.939672 -19.207486 -4.692923 36.982694 -3.128372 0.660203 -10.635580 1.019634 1.176736 0.000000 0.000000 0.000000 176.600497 -41.878007 173.077472 0.000000 -0.000001 0.000000 12.512654 -1.588625 0.887609 -2.498365 -2.771514 1.933869 0.000000 0.000000 0.000000 -2.455365 -2.448657 2.168228 -0.308336 0.537106 0.866456 0.000000 0.000000 0.000000 -2.455365 -2.448657 2.168228 0.608919 3.345979 -9.957551 1.266385 -6.746953 -63.030386 4.418405 -14.584332 -8.215598 0.000000 0.000000 0.000000 -2.455365 -2.448657 2.168228 0.841054 -0.497427 17.375457 17.286555 30.631950 43.361282 14.002011 25.735121 -6.042345 0.000000 0.000000 0.000000 
-4.196720 90.286346 -8.544918 0.000000 0.000000 0.000000 178.004852 -37.819526 174.230531 -13.578982 2.897032 25.012972 49.917963 17.198575 1.539701 8.113665 -0.115590 -14.584614 0.000000 0.000000 0.000000 178.004852 -37.819526 174.230531 -26.304734 -16.754495 -1.521179 37.085134 -2.061907 0.709000 -12.230099 0.715254 -0.366479 0.000000 0.000000 0.000000 178.004852 -37.819526 174.230531 0.000000 -0.000003 0.000001 13.662004 -1.382150 1.397701 -2.849162 -2.461825 1.304622 0.000000 0.000000 0.000000 -2.826468 -2.183208 1.534114 -0.244241 -0.089291 0.969798 0.000000 0.000000 0.000000 -2.826468 -2.183208 1.534114 0.597758 3.297047 -9.784435 1.771982 -4.327190 -63.742713 4.593788 -13.658754 -8.684270 0.000000 0.000000 0.000000 -2.826468 -2.183208 1.534114 0.882169 -0.682455 17.738061 18.365153 32.057141 42.183160 13.390961 25.255171 -5.547873 0.000000 0.000000 0.000000 
-4.272128 90.625092 -11.790878 0.000000 0.000000 0.000000 179.416311 -32.903238 175.445485 -15.609764 2.416141 22.562946 54.880707 14.208620 1.303312 6.190958 0.134840 -15.332878 0.000000 0.000000 0.000000 179.416311 -32.903238 175.445485 -23.358140 -13.640263 1.334073 36.441078 -0.342183 0.766475 -13.321043 0.258314 -1.946939 0.000000 0.000000 0.000000 179.416311 -32.903238 175.445485 0.000000 -0.000002 0.000000 14.316332 -0.842748 1.467710 -2.838855 -1.804878 0.891241 0.000000 0.000000 0.000000 -2.832343 -1.580999 1.064192 -0.031214 -0.514329 0.901437 0.000000 0.000000 0.000000 -2.832343 -1.580999 1.064192 0.636448 3.895781 -10.359375 2.008587 -2.537198 -64.155748 4.876539 -12.393454 -9.117639 0.000000 0.000000 0.000000 -2.832343 -1.580999 1.064192 0.890800 -0.874676 17.632116 18.391990 32.519306 42.071506 14.492584 24.177012 -5.293298 0.000000 0.000000 0.000000 
-4.434488 91.154404 -15.228683 0.000000 0.000000 0.000000 179.967876 -27.988607 176.368079 -19.045559 2.835669 18.642947 57.726382 13.385280 1.253881 5.305024 0.180285 -12.342976 0.000000 0.000000 0.000000 179.967876 -27.988607 176.368079 -20.410748 -12.014170 2.981831 34.898056 4.040827 0.988601 -14.109896 -0.815034 -4.268825 0.000000 0.000000 0.000000 179.967876 -27.988607 176.368079 0.000000 -0.000002 0.000000 13.791014 -0.255589 1.234191 -2.558233 -0.992641 0.423671 0.000000 0.000000 0.000000 -2.560013 -0.855825 0.511784 0.186275 -0.882945 0.943075 0.000000 0.000000 0.000000 -2.560013 -0.855825 0.511784 0.620693 4.087849 -10.134310 2.602733 -1.422559 -65.204032 5.653922 -11.204524 -9.267611 0.000000 0.000000 0.000000 -2.560013 -0.855825 0.511784 0.906627 -1.088479 17.853408 18.516687 32.317703 42.017620 15.113744 23.785323 -4.929573 0.000000 0.000000 0.000000 
